<svg xmlns="http://www.w3.org/2000/svg" viewBox="0 0 96 96" role="img" aria-label="Touchstone logo mark">
  <rect width="96" height="96" rx="22" fill="#09090b"/>
  <path d="M48 8 88 48 48 88 8 48 48 8Z" fill="#d4ff4f"/>
  <path d="M48 20 76 48 48 76 20 48 48 20Z" fill="#09090b"/>
  <path d="M48 31 65 48 48 65 31 48 48 31Z" fill="#e8e8ec"/>
  <path d="M48 40 56 48 48 56 40 48 48 40Z" fill="#09090b"/>
  <path d="M48 12v21M48 63v21M12 48h21M63 48h21" stroke="#09090b" stroke-width="6" stroke-linecap="square"/>
  <path d="M48 6 90 48 48 90 6 48 48 6Z" fill="none" stroke="#ffffff" stroke-opacity=".18" stroke-width="2"/>
</svg>
